<?xml version="1.0" encoding="utf-8"?>
<!-- Generator: Adobe Illustrator 19.0.0, SVG Export Plug-In . SVG Version: 6.00 Build 0)  -->
<svg version="1.1" id="Layer_1" xmlns="http://www.w3.org/2000/svg" xmlns:xlink="http://www.w3.org/1999/xlink" x="0px" y="0px"
	 viewBox="0 0 737 368.5" style="enable-background:new 0 0 737 368.5;" xml:space="preserve" fill="#ffffff">
<g>
	<g>
		<g>
			<path d="M105.8,168.1c-2.7,6.1-6.5,11.4-11.3,15.7c-4.8,4.3-10.1,7.7-16.1,10.2c-6,2.4-12.1,3.9-18.4,4.5
				c-7.8,0.7-14.5,0.2-19.9-1.5c-5.5-1.7-10.9-5-16.2-9.8l21.4-23.1c2.4,2.2,4.6,3.7,6.6,4.5c2,0.9,4.7,1.2,8.1,0.9
				c5.3-0.5,9.6-2.4,12.7-5.7c3.1-3.3,4.7-8,4.7-14.1V63.2l32.6-2.8v87.1C109.9,155.1,108.5,161.9,105.8,168.1z"/>
			<path d="M229.2,155.4c-2.6,6.1-6.2,11.5-10.9,16.1c-4.7,4.6-10.1,8.3-16.2,11.1c-6.1,2.8-12.6,4.5-19.4,5.1
				c-6.8,0.6-13.3,0-19.4-1.7c-6.1-1.7-11.4-4.5-16.1-8.3c-4.7-3.8-8.3-8.6-10.8-14.2c-2.5-5.7-3.8-12-3.8-19.1v-86l32.6-2.8v85.2
				c0,6.1,1.6,10.7,4.7,13.8c3.1,3.1,7.4,4.5,12.8,4c5.5-0.5,9.8-2.6,13-6.3c3.2-3.7,4.8-8.6,4.8-14.7V52.5l32.6-2.8v86
				C233.1,142.7,231.8,149.3,229.2,155.4z"/>
			<path d="M342.7,149.6c-2.6,5.4-6.3,10.1-11,14.1c-4.7,3.9-10.2,7.1-16.4,9.5c-6.2,2.4-12.8,3.9-19.9,4.5
				c-10.9,1-20.4,0.5-28.6-1.3c-8.1-1.8-15.4-5.8-21.7-11.8L266,142c3.2,2.9,7.5,4.9,12.7,6c5.3,1,10.9,1.3,16.8,0.8
				c12.7-1.1,19-5.6,19-13.6c0-3.4-0.9-5.9-2.6-7.6c-1.9-1.7-4.8-2.6-8.7-2.8l-7.8-0.4l-8.2-0.4c-11.8-0.7-20.7-3.8-26.6-9.4
				c-6.1-5.8-9.1-14.4-9.1-25.8c0-12.3,4.4-22.7,13.1-31.3c8.7-8.6,20.5-13.5,35.3-14.8c9.7-0.8,18.1-0.3,25.4,1.5
				c7.3,1.8,13.7,5.3,19.3,10.4l-20.5,22.3c-3.3-3.1-7-4.9-11-5.5c-4-0.6-8.7-0.6-14.1-0.2c-5.2,0.5-9.2,2-11.9,4.8
				c-2.7,2.7-4.1,5.7-4.1,8.9c0,2.4,0.9,4.3,2.6,5.9c2.1,1.9,5.1,3,9.1,3.1l7.3,0.3l8.7,0.5c11.7,0.6,20.3,3.5,26.1,8.7
				c6.6,5.9,9.9,15.3,9.9,28.2C346.6,138.2,345.3,144.2,342.7,149.6z"/>
			<polygon points="425.3,61.8 425.3,165.3 392.8,168.2 392.8,64.7 360.2,67.5 360.2,38.5 457.9,29.9 457.9,59 			"/>
			<path d="M126.3,340.7c-7.7,7.6-17.6,11.9-29.8,12.9l-57.7,5V226.1l54.9-4.8c13.5-1.2,23.9,1.4,31.3,7.7c7.3,6.3,11,15.3,11,27
				c0,6.6-1.6,12.1-4.7,16.7c-3.1,4.6-6.4,8.2-9.9,10.8c2,1.1,3.8,2.2,5.5,3.3c1.7,1.2,3.4,2.8,5,4.9c1.7,2.1,3.1,4.7,4.2,7.9
				c1.1,3.2,1.7,7,1.7,11.3C137.8,323.2,133.9,333.1,126.3,340.7z M100.6,253.1c-1.9-1.9-4.8-2.7-8.9-2.4l-20.3,1.8v21.6l20.3-1.8
				c4.1-0.4,7.1-1.7,8.9-3.9c1.9-2.3,2.8-4.9,2.8-7.9S102.4,255.1,100.6,253.1z M102.3,304c-1.9-2.1-4.9-2.9-9-2.6l-22,1.9v23.3
				l22-1.9c4.1-0.4,7.1-1.8,9-4.2c1.9-2.5,2.9-5.3,2.9-8.5C105.2,308.7,104.3,306,102.3,304z"/>
			<polygon points="160.3,348 160.3,215.5 250.4,207.6 250.4,236.7 192.9,241.7 192.9,263.8 242,259.5 242,288.6 192.9,292.9
				192.9,316.1 250.4,311.1 250.4,340.1 			"/>
			<polygon points="330.8,229.6 330.8,333.1 298.2,336 298.2,232.5 265.7,235.3 265.7,206.3 363.4,197.7 363.4,226.8 			"/>
			<polygon points="439.7,220.1 439.7,323.6 407.1,326.4 407.1,223 374.5,225.8 374.5,196.8 472.2,188.2 472.2,217.3 			"/>
			<polygon points="491.2,319.1 491.2,186.6 581.3,178.7 581.3,207.7 523.8,212.7 523.8,234.9 572.9,230.6 572.9,259.6 523.8,263.9
				523.8,287.2 581.3,282.2 581.3,311.2 			"/>
			<path d="M671.4,303.3L647.9,256l-11,1v49.3l-32.6,2.9V176.7l52.5-4.6c7.1-0.6,13.5,0,19.2,1.8c5.7,1.8,10.5,4.5,14.3,8.2
				c3.8,3.7,6.8,8,8.7,13c2,5,3,10.2,3,15.7c0,8.3-2.1,15.6-6.2,21.9c-4.2,6.3-9.3,11.1-15.4,14.7l28.7,52.8L671.4,303.3z
				 M665.7,204.5c-2.5-2.4-6-3.5-10.3-3.1L637,203v26.8l18.4-1.6c4.3-0.4,7.8-2,10.3-4.9c2.5-2.9,3.8-6.1,3.8-9.7
				C669.5,210,668.3,207,665.7,204.5z"/>
		</g>
	</g>
</g>
<g>
	<polyline points="557.3,338.1 709.2,324.8 709.2,314.8 557.3,328.1 	"/>
</g>
<g>
	<polyline points="460.4,346.4 536.4,339.8 536.4,329.8 460.4,336.4 	"/>
</g>
<g>
	<polyline points="77.3,45.6 229.2,32.3 229.2,22.3 77.3,35.6 	"/>
</g>
<g>
	<polyline points="250.2,30.6 326.2,24 326.2,14 250.2,20.6 	"/>
</g>
<g>
</g>
<g>
</g>
<g>
</g>
<g>
</g>
<g>
</g>
<g>
</g>
</svg>
